HIERARCHY
ROOT Torso
{
	OFFSET 0.000000 0.000000 0.000000
	CHANNELS 6 Xposition Yposition Zposition Zrotation Yrotation Xrotation
	JOINT TorsoExt
	{
		OFFSET 0.000000 0.000000 0.000000
		CHANNELS 6 Xposition Yposition Zposition Zrotation Yrotation Xrotation
		JOINT LeftHip
		{
			OFFSET 0.000000 0.010000 -0.060000
			CHANNELS 3 Zrotation Yrotation Xrotation
			JOINT LeftThigh
			{
				OFFSET 0.055000 0.000000 -0.055000
				CHANNELS 6 Xposition Yposition Zposition Zrotation Yrotation Xrotation
				JOINT LeftLeg
				{
					OFFSET 0.000000 -0.015000 -0.120000
					CHANNELS 6 Xposition Yposition Zposition Zrotation Yrotation Xrotation
					JOINT LeftFoot
					{
						OFFSET 0.000000 0.010000 -0.100000
						CHANNELS 6 Xposition Yposition Zposition Zrotation Yrotation Xrotation
						End Site
						{
							OFFSET 0.000000 -0.090000 -0.035000
						}
					}
				}
			}
		}
		JOINT RightHip
		{
			OFFSET 0.000000 0.010000 -0.060000
			CHANNELS 3 Zrotation Yrotation Xrotation
			JOINT RightThigh
			{
				OFFSET -0.055000 0.000000 -0.055000
				CHANNELS 6 Xposition Yposition Zposition Zrotation Yrotation Xrotation
				JOINT RightLeg
				{
					OFFSET 0.000000 -0.015000 -0.120000
					CHANNELS 6 Xposition Yposition Zposition Zrotation Yrotation Xrotation
					JOINT RightFoot
					{
						OFFSET 0.000000 0.010000 -0.100000
						CHANNELS 6 Xposition Yposition Zposition Zrotation Yrotation Xrotation
						End Site
						{
							OFFSET 0.000000 -0.090000 -0.035000
						}
					}
				}
			}
		}
	}
	JOINT Neck
	{
		OFFSET 0.000000 -0.000000 0.040000
		CHANNELS 6 Xposition Yposition Zposition Zrotation Yrotation Xrotation
		JOINT Head
		{
			OFFSET 0.000000 -0.000000 0.100000
			CHANNELS 6 Xposition Yposition Zposition Zrotation Yrotation Xrotation
			End Site
			{
				OFFSET 0.000000 -0.000000 0.070000
			}
		}
	}
	JOINT LeftUpperarm
	{
		OFFSET 0.098000 -0.000000 0.075000
		CHANNELS 6 Xposition Yposition Zposition Zrotation Yrotation Xrotation
		JOINT LeftLowerarm
		{
			OFFSET 0.000000 -0.090000 0.009000
			CHANNELS 6 Xposition Yposition Zposition Zrotation Yrotation Xrotation
			End Site
			{
				OFFSET 0.000000 -0.105000 0.000000
			}
		}
	}
	JOINT RightUpperarm
	{
		OFFSET -0.098000 -0.000000 0.075000
		CHANNELS 6 Xposition Yposition Zposition Zrotation Yrotation Xrotation
		JOINT RightLowerarm
		{
			OFFSET 0.000000 -0.090000 0.009000
			CHANNELS 6 Xposition Yposition Zposition Zrotation Yrotation Xrotation
			End Site
			{
				OFFSET 0.000000 -0.105000 0.000000
			}
		}
	}
}
MOTION
Frames: 12
Frame Time: 0.041667
0.000000 0.000000 0.000000 0.000000 -0.000000 0.000000 0.000000 0.000000 0.000000 0.000000 -0.000000 -0.000001 -56.501534 -2.248396 9.647618 0.055000 -0.000000 -0.055000 -0.000002 0.000003 -0.000002 -0.000000 -0.015000 -0.120001 -137.099409 -8.392321 -15.844113 0.000000 0.010000 -0.100000 -170.095261 26.971090 -23.891404 14.830055 -0.159357 8.660190 -0.055002 -0.000000 -0.054999 152.401751 3.745440 35.733753 -0.000000 -0.015000 -0.120000 -15.757900 -7.849737 -57.706779 0.000000 0.010000 -0.100000 165.005267 -28.575427 -32.508183 -0.000001 -0.000000 0.039998 -12.244469 -3.476549 -2.959144 0.000001 -0.000000 0.100002 12.513591 5.482691 -3.390773 0.098000 0.000000 0.075000 -58.590777 177.895446 -92.359894 -0.000001 -0.089999 0.009001 -38.467339 34.062065 88.275407 -0.097998 0.000000 0.075000 32.279334 -147.024699 -82.815497 0.000000 -0.090000 0.009000 38.478656 -34.449425 88.940183 
0.000000 0.000000 0.000000 0.000000 -0.000000 0.000000 0.000000 0.000000 0.000000 0.000000 -0.000000 -0.000001 -55.418751 -1.926815 9.393224 0.055000 -0.000000 -0.055000 0.000002 0.000001 0.000001 -0.000001 -0.014999 -0.119999 -137.560283 -7.958221 -15.929553 0.000000 0.010000 -0.100000 -170.856458 26.899961 -24.039891 15.903605 0.184467 8.883459 -0.055000 -0.000000 -0.055000 151.961368 4.196690 35.839177 -0.000000 -0.015001 -0.120000 -15.762584 -7.818315 -58.043269 -0.000000 0.010000 -0.100000 164.775691 -28.582238 -32.903914 0.000001 0.000000 0.039998 -11.364698 -3.427939 -3.080286 0.000000 0.000000 0.099998 11.965547 5.547341 -3.210532 0.097998 -0.000001 0.075001 -57.782021 178.150062 -91.920351 0.000001 -0.090001 0.009000 -38.466375 34.035611 88.230082 -0.098000 0.000000 0.075000 33.618625 -144.930412 -82.064470 0.000000 -0.089998 0.009000 38.461704 -33.915659 88.024828 
0.000000 0.000000 0.000000 0.000000 -0.000000 0.000000 0.000000 0.000000 0.000000 0.000000 -0.000000 -0.000001 -54.343461 -1.710449 9.309836 0.055000 -0.000000 -0.055000 -0.000005 -0.000000 0.000003 -0.000000 -0.015000 -0.120000 -137.866781 -7.815144 -15.914602 0.000000 0.010000 -0.100000 -171.427079 26.844307 -24.062873 16.977035 0.332705 9.061761 -0.055000 -0.000000 -0.054999 151.662397 4.350798 36.026779 -0.000000 -0.015000 -0.119999 -16.044681 -7.881782 -58.294995 0.000001 0.010000 -0.100000 164.466734 -28.601964 -33.134668 0.000001 -0.000000 0.040000 -10.591265 -2.990599 -3.099630 -0.000000 -0.000000 0.100000 11.376238 5.137004 -3.539987 0.097998 -0.000001 0.075000 -56.792097 178.413612 -91.394809 -0.000000 -0.090000 0.009000 -38.463736 33.965639 88.110308 -0.097998 0.000001 0.075000 34.988873 -142.731693 -81.283349 0.000001 -0.089998 0.009000 38.427655 -33.271747 86.927353 
0.000000 0.000000 0.000000 0.000000 -0.000000 0.000000 0.000000 0.000000 0.000000 0.000000 -0.000000 -0.000001 -53.286739 -1.545343 9.556539 0.055000 -0.000000 -0.055000 -0.000003 0.000002 0.000000 0.000000 -0.015000 -0.120000 -138.383348 -7.884221 -15.584883 -0.000000 0.010000 -0.100000 -172.081343 26.786325 -24.348986 18.041747 0.151955 9.297119 -0.055000 0.000001 -0.054999 151.147059 4.299812 36.380443 0.000000 -0.015000 -0.120000 -16.230244 -7.971462 -58.471467 -0.000000 0.010000 -0.100000 164.179579 -28.624660 -33.236708 -0.000001 -0.000001 0.040000 -9.484000 -1.451494 -2.772768 0.000000 -0.000000 0.100002 10.495367 3.584578 -4.448859 0.098002 -0.000001 0.075000 -55.836783 178.904429 -90.805063 -0.000000 -0.090000 0.009001 -38.459791 33.872168 87.950522 -0.097998 0.000001 0.075000 36.468180 -140.394812 -80.751141 -0.000001 -0.090001 0.009000 38.383891 -32.684429 85.931853 
0.000000 0.000000 0.000000 0.000000 -0.000000 0.000000 0.000000 0.000000 0.000000 0.000000 -0.000000 -0.000001 -52.110174 -1.335087 9.708307 0.055000 0.000000 -0.055000 0.000003 0.000003 0.000001 -0.000000 -0.015000 -0.119999 -139.056272 -7.872662 -15.166222 0.000000 0.010000 -0.100000 -172.289828 26.764660 -24.300751 19.222596 0.075511 9.544878 -0.055000 0.000001 -0.054998 150.479436 4.333415 36.708121 0.000000 -0.015000 -0.120000 -16.331788 -7.982854 -58.795430 -0.000000 0.010000 -0.100000 164.054300 -28.620297 -33.611979 0.000001 -0.000001 0.039998 -8.297683 -0.036589 -2.534727 -0.000001 -0.000000 0.100000 9.708775 2.186845 -4.858007 0.097998 -0.000000 0.075000 -54.976104 179.506742 -90.353758 -0.000000 -0.090000 0.009000 -38.460587 33.890685 87.982126 -0.098000 -0.000000 0.075000 37.928737 -138.197553 -80.168567 -0.000000 -0.090001 0.009000 38.330465 -32.116735 84.974015 
0.000000 0.000000 0.000000 0.000000 -0.000000 0.000000 0.000000 0.000000 0.000000 0.000000 -0.000000 -0.000001 -50.860942 -0.898235 9.498013 0.055000 -0.000000 -0.055000 -0.000003 0.000003 0.000001 -0.000001 -0.015000 -0.120000 -139.684499 -7.435594 -14.923905 0.000000 0.010000 -0.100000 -172.336615 26.756032 -24.123958 20.469184 0.414538 9.891472 -0.055002 0.000000 -0.055000 149.868598 4.789356 36.862500 0.000000 -0.015000 -0.119999 -16.308052 -7.812569 -59.157566 0.000000 0.010000 -0.100001 163.813809 -28.616066 -34.187665 -0.000001 -0.000000 0.040000 -7.468406 0.974787 -2.396619 -0.000001 0.000000 0.100000 9.229657 1.098578 -5.024789 0.098000 0.000000 0.075000 -54.156659 179.915051 -89.975851 -0.000000 -0.090000 0.009001 -38.462755 33.942646 88.071014 -0.098004 -0.000000 0.075000 39.235919 -136.092011 -79.290020 -0.000000 -0.089999 0.008999 38.259100 -31.492670 83.925635 
0.000000 0.000000 0.000000 0.000000 -0.000000 0.000000 0.000000 0.000000 0.000000 0.000000 -0.000000 -0.000001 -49.747505 -0.695796 9.489672 0.055000 -0.000000 -0.055000 -0.000005 0.000004 -0.000002 -0.000000 -0.015000 -0.120000 -140.452609 -7.181894 -14.833509 0.000000 0.010000 -0.100000 -173.096719 26.692255 -24.647552 21.583977 0.487236 10.080569 -0.055000 0.000000 -0.055000 149.111335 5.064340 36.862326 -0.000001 -0.015000 -0.120000 -15.906978 -7.468342 -59.400550 0.000000 0.010000 -0.100000 163.500863 -28.615289 -34.778541 -0.000002 -0.000000 0.039998 -6.645316 1.980958 -2.152754 0.000000 -0.000000 0.099998 8.394294 0.067550 -5.532266 0.098004 0.000002 0.075000 -53.302007 180.103196 -89.535352 0.000000 -0.090000 0.008999 -38.460659 33.890156 87.981238 -0.098000 0.000000 0.075000 40.549809 -133.885641 -78.488579 0.000000 -0.090000 0.009000 38.172343 -30.851985 82.853384 
0.000000 0.000000 0.000000 0.000000 -0.000000 0.000000 0.000000 0.000000 0.000000 0.000000 -0.000000 -0.000001 -48.687299 -0.713317 9.658868 0.055000 -0.000000 -0.055000 -0.000001 0.000003 -0.000000 -0.000000 -0.015000 -0.120001 -141.230472 -7.191009 -14.707673 0.000000 0.010000 -0.100000 -173.678419 26.637272 -24.779552 22.646505 0.321345 10.118147 -0.055000 -0.000000 -0.055000 148.336532 5.074717 36.907156 -0.000000 -0.015000 -0.120000 -15.570062 -7.201979 -59.702731 -0.000000 0.010001 -0.100000 163.213996 -28.612511 -35.314540 -0.000001 -0.000000 0.040000 -5.731078 3.343423 -1.530508 -0.000000 0.000000 0.100000 7.363067 -1.241890 -6.495573 0.097998 -0.000002 0.075000 -52.261493 180.304167 -89.113027 -0.000001 -0.090000 0.009000 -38.458958 33.851681 87.915483 -0.097998 -0.000000 0.075000 42.046737 -131.531876 -78.124667 -0.000001 -0.090001 0.009000 38.073148 -30.218263 81.796139 
0.000000 0.000000 0.000000 0.000000 -0.000000 0.000000 0.000000 0.000000 0.000000 0.000000 -0.000000 -0.000001 -47.612142 -0.597353 9.731097 0.055000 -0.000000 -0.055000 -0.000002 0.000001 0.000002 0.000001 -0.015000 -0.120000 -142.055149 -6.976982 -14.573839 0.000001 0.010000 -0.100000 -174.238098 26.583569 -24.877912 23.723192 0.290027 10.251124 -0.055000 -0.000000 -0.055001 147.519723 5.306867 36.970953 -0.000000 -0.015000 -0.120000 -15.381407 -7.105491 -59.945948 0.000000 0.009999 -0.100000 162.988504 -28.620132 -35.543454 0.000001 0.000000 0.040002 -4.582179 4.949907 -0.644322 -0.000000 -0.000000 0.099998 6.557981 -2.887720 -7.588253 0.098000 0.000000 0.075000 -51.229076 180.623601 -88.668799 0.000001 -0.090000 0.009000 -38.458726 33.846681 87.906980 -0.097998 0.000000 0.075000 43.834395 -129.043297 -78.216731 -0.000000 -0.090000 0.008999 37.961331 -29.586597 80.745083 
0.000000 0.000000 0.000000 0.000000 -0.000000 0.000000 0.000000 0.000000 0.000000 0.000000 -0.000000 -0.000001 -46.578567 -0.537482 9.937947 0.055000 -0.000000 -0.055000 -0.000003 0.000001 -0.000000 -0.000000 -0.015000 -0.119999 -143.035417 -6.885028 -14.388953 -0.000001 0.010000 -0.100000 -174.897376 26.525023 -25.279205 24.759236 0.113226 10.374041 -0.054998 -0.000000 -0.055002 146.544304 5.417173 37.075233 -0.000000 -0.015000 -0.120000 -15.139498 -7.045233 -60.110678 -0.000000 0.010000 -0.100000 162.880095 -28.629554 -35.554475 0.000001 0.000000 0.040002 -3.320712 6.192380 -0.055629 0.000001 -0.000000 0.100002 5.855776 -4.131175 -8.377411 0.098000 0.000001 0.075000 -50.176226 181.068684 -88.181328 0.000001 -0.090002 0.008999 -38.457421 33.818254 87.858315 -0.098004 -0.000001 0.075000 45.674370 -126.499174 -78.009278 -0.000001 -0.090001 0.009000 37.832001 -28.933764 79.660797 
0.000000 0.000000 0.000000 0.000000 -0.000000 0.000000 0.000000 0.000000 0.000000 0.000000 -0.000000 -0.000001 -45.599227 -0.305858 9.905192 0.055000 0.000000 -0.055000 0.000002 0.000003 -0.000001 0.000001 -0.015000 -0.120000 -143.574838 -6.628631 -14.245889 0.000001 0.010000 -0.100000 -175.064155 26.507378 -25.208174 25.738928 0.218370 10.583020 -0.055000 -0.000000 -0.055000 146.010293 5.682159 37.319419 -0.000000 -0.015000 -0.120000 -15.078186 -6.925079 -60.372848 -0.000000 0.010000 -0.100000 162.736251 -28.632476 -35.728562 -0.000000 -0.000000 0.040000 -2.437219 6.985635 0.229012 0.000000 -0.000000 0.099998 4.975376 -4.691613 -8.952960 0.098002 -0.000001 0.075000 -49.004080 181.549693 -87.839279 0.000000 -0.090000 0.009000 -38.457862 33.827673 87.874557 -0.097998 0.000000 0.075000 47.389034 -124.039172 -77.396268 0.000001 -0.090000 0.009000 37.674203 -28.216130 78.470138 
0.000000 0.000000 0.000000 0.000000 -0.000000 0.000000 0.000000 0.000000 0.000000 0.000000 -0.000000 -0.000001 -44.626451 0.343497 9.604660 0.055000 -0.000000 -0.055000 -0.000003 -0.000001 -0.000002 -0.000000 -0.015000 -0.120000 -143.861037 -5.836309 -14.140471 -0.000001 0.010000 -0.100000 -175.228681 26.488389 -25.053598 26.716012 0.710873 11.102104 -0.055000 -0.000000 -0.055001 145.735787 6.478572 37.691518 -0.000000 -0.015000 -0.120000 -15.053506 -6.761709 -60.562160 -0.000000 0.010000 -0.100000 162.235667 -28.677987 -35.736410 -0.000000 -0.000001 0.039998 -1.735425 7.983126 0.565600 -0.000000 0.000000 0.099998 4.174762 -5.534297 -9.353669 0.098002 -0.000000 0.075000 -47.937498 181.979407 -87.590428 -0.000000 -0.090002 0.009001 -38.457961 33.830214 87.878839 -0.097998 0.000001 0.075000 49.111270 -121.706403 -77.042997 0.000000 -0.090000 0.009000 37.443203 -27.278666 76.915730 
